<?xml version="1.0" encoding="utf-8"?>
<!-- Generator: Adobe Illustrator 23.0.6, SVG Export Plug-In . SVG Version: 6.00 Build 0)  -->
<svg version="1.0" id="Layer_1" xmlns="http://www.w3.org/2000/svg" xmlns:xlink="http://www.w3.org/1999/xlink" x="0px" y="0px"
	 viewBox="0 0 459.2 392" style="enable-background:new 0 0 459.2 392;" xml:space="preserve">
<style type="text/css">
	.st0{fill:#A88683;}
</style>
<path class="st0" d="M39.2,0C17.6,0,0,17.6,0,39.2v319.2C0,376.9,15.1,392,33.6,392h392c18.5,0,33.6-15.1,33.6-33.6V100.8
	c0-18.5-15.1-33.6-33.6-33.6H392V5.6c0-2.9-2.7-5.6-5.6-5.6L39.2,0z M39.2,11.2h341.6v56H39.2c-15.6,0-28-12.4-28-28
	S23.6,11.2,39.2,11.2z M11.2,66.5c7.1,7.3,17,11.9,28,11.9h386.4c12.5,0,22.4,9.9,22.4,22.4v72.8H280c-12.3,0-22.4,10.1-22.4,22.4
	v67.2c0,12.3,10.1,22.4,22.4,22.4h168v72.8c0,12.5-9.9,22.4-22.4,22.4h-392c-12.5,0-22.4-9.9-22.4-22.4L11.2,66.5z M280,184.8h168
	v89.6H280c-6.3,0-11.2-4.9-11.2-11.2V196C268.8,189.7,273.7,184.8,280,184.8L280,184.8z M336,207c-12.3,0-22.4,10.1-22.4,22.4
	c0,12.3,10.1,22.4,22.4,22.4c12.3,0,22.4-10.1,22.4-22.4C358.4,217.1,348.3,207,336,207z M336,218.2c6.3,0,11.2,4.9,11.2,11.2
	s-4.9,11.2-11.2,11.2s-11.2-4.9-11.2-11.2S329.7,218.2,336,218.2z"/>
</svg>
