<?xml version="1.0" encoding="utf-8"?>
<!-- Generator: Adobe Illustrator 23.0.6, SVG Export Plug-In . SVG Version: 6.00 Build 0)  -->
<svg version="1.1" id="Layer_1" xmlns="http://www.w3.org/2000/svg" xmlns:xlink="http://www.w3.org/1999/xlink" x="0px" y="0px"
	 viewBox="0 0 498.2 498.8" style="enable-background:new 0 0 498.2 498.8;" xml:space="preserve">
<style type="text/css">
	.st0{fill:#FCFCFD;}
</style>
<path class="st0" d="M249.4,0C111.8,0,0,111.8,0,249.4C0,387,111.8,498.8,249.4,498.8S498.8,387,498.8,249.4S387,0,249.4,0z
	 M249.4,17.5c128.1,0,231.9,103.7,231.9,231.9S377.5,481.3,249.4,481.3c-128.2,0-231.9-103.7-231.9-231.9
	C17.5,121.2,121.2,17.5,249.4,17.5z M269,143.1c-4.8,0.2-8.6,4.2-8.4,9.1c0.1,2.1,0.9,4.1,2.3,5.6l72.1,81.8l-190.5-0.1
	c-0.3,0-0.6,0-0.9,0c-4.8,0.2-8.6,4.4-8.3,9.2c0.2,4.8,4.4,8.6,9.2,8.3l190.6,0.1l-74.1,84c-3.4,3.4-3.4,9,0.1,12.4
	c3.4,3.4,9,3.4,12.4-0.1c0.2-0.2,0.5-0.5,0.7-0.8l86.9-98.4l0.1-0.1c0.1-0.1,0.2-0.2,0.2-0.3c0,0,0,0,0,0l0,0
	c3-3.7,2.4-9.2-1.3-12.3l-84.1-95.3C274.2,144.1,271.6,143,269,143.1L269,143.1z"/>
</svg>
