<?xml version="1.0" encoding="utf-8"?>
<!-- Generator: Adobe Illustrator 23.0.6, SVG Export Plug-In . SVG Version: 6.00 Build 0)  -->
<svg version="1.1" id="Layer_1" xmlns="http://www.w3.org/2000/svg" xmlns:xlink="http://www.w3.org/1999/xlink" x="0px" y="0px"
	 viewBox="0 0 491.1 491.4" style="enable-background:new 0 0 491.1 491.4;" xml:space="preserve">
<style type="text/css">
	.st0{fill:#F2F4F7;}
</style>
<path class="st0" d="M472.2,200.2l-34.4-34.4v-48.3c0-35.6-28.9-64.5-64.5-64.5h-48.4l-34.1-34.1C278.6,6.7,262.4,0,245.2,0
	s-33.4,6.7-45.6,18.9L165.3,53h-48.4C81.3,53,52.4,82,52.4,117.5V166l-34.4,34.4C5.9,212.5-0.8,228.7-0.8,245.9s6.7,33.4,18.8,45.6
	l34.4,34.4v48.3c0,35.6,28.9,64.5,64.5,64.5h48.4l34.1,34.1c12.2,12.2,28.4,18.9,45.6,18.9s33.4-6.7,45.6-18.9l34.1-34.1h48.4
	c35.6,0,64.5-28.9,64.5-64.5v-48.4l34.4-34.4c12.2-12.2,18.9-28.4,18.9-45.6S484.4,212.3,472.2,200.2L472.2,200.2z M466.9,286.1
	l-35.4,35.4c-0.7,0.7-1.1,1.7-1.1,2.6v50c0,31.4-25.6,56.9-56.9,56.9h-50c-1,0-2,0.4-2.6,1.1l-35.3,35.3
	c-10.7,10.7-25,16.6-40.3,16.6c-15.2,0-29.5-5.9-40.3-16.7l-35.3-35.3c-0.7-0.7-1.7-1.1-2.6-1.1h-50c-31.4,0-56.9-25.6-56.9-56.9
	v-49.8c0-1-0.4-2-1.1-2.6l-35.6-35.4c-10.7-10.7-16.6-25-16.6-40.3c0-15.2,5.9-29.5,16.6-40.3l35.4-35.4c0.7-0.7,1.1-1.7,1.1-2.6
	v-50c0-31.4,25.6-56.9,56.9-56.9h50c1,0,2-0.4,2.6-1.1l35.3-35.3c10.7-10.7,25-16.6,40.3-16.6c15.2,0,29.5,5.9,40.3,16.7l35.3,35.3
	c0.7,0.7,1.7,1.1,2.6,1.1h50c31.4,0,56.9,25.6,56.9,56.9v49.8c0,1,0.4,2,1.1,2.6l35.4,35.5c10.7,10.7,16.6,25,16.6,40.3
	C483.6,261,477.7,275.3,466.9,286.1L466.9,286.1z"/>
<path class="st0" d="M402.2,187.5c-3.1-3.1-4.8-7.3-4.8-11.7v-58.2c0-13.2-10.7-24-24-24H315c-4.4,0-8.6-1.7-11.7-4.8l-41.2-41.2
	c-9.4-9.4-24.6-9.4-34,0L187,88.8c-3.1,3.1-7.3,4.8-11.7,4.8h-58.4c-13.2,0-24,10.7-24,24V176c0,4.4-1.7,8.6-4.8,11.7l-41.4,41.4
	c-9.4,9.4-9.4,24.6,0,34l41.4,41.4c3.1,3.1,4.8,7.3,4.8,11.7v58.2c0,13.2,10.7,24,24,24h58.4c4.4,0,8.6,1.7,11.7,4.8l41.2,41.2
	c4.5,4.5,10.6,7,17,7c6.4,0,12.5-2.5,17-7l41.2-41.2c3.1-3.1,7.3-4.8,11.7-4.8h58.4c13.2,0,24-10.7,24-24v-58.4
	c0-4.4,1.7-8.6,4.8-11.7l41.4-41.4c4.5-4.5,7-10.6,7-17c0-6.4-2.5-12.5-7-17L402.2,187.5z M438.2,257.5l-41.4,41.4
	c-4.5,4.5-7,10.6-7,17v58.4c0,9.1-7.4,16.4-16.4,16.4h-58.4c-6.4,0-12.5,2.5-17,7l-41.2,41.2c-6.2,6.2-17,6.2-23.3,0l-41.2-41.2
	c-4.5-4.5-10.6-7-17-7h-58.4c-9.1,0-16.4-7.4-16.4-16.4V316c0-6.4-2.5-12.5-7-17L52,257.6c-6.4-6.4-6.4-16.9,0-23.3l41.4-41.4
	c4.5-4.5,7-10.6,7-17v-58.4c0-9.1,7.4-16.4,16.4-16.4h58.4c6.4,0,12.5-2.5,17-7l41.2-41.2c6.4-6.4,16.9-6.4,23.3,0L298,94.1
	c4.5,4.5,10.6,7,17,7h58.4c9.1,0,16.4,7.4,16.4,16.4v58.2c0,6.4,2.5,12.4,7,17l41.4,41.4c3.1,3.1,4.8,7.3,4.8,11.7
	C443.1,250.2,441.3,254.3,438.2,257.5L438.2,257.5z"/>
<path class="st0" d="M320.5,261.5c-1.5-1.4-3.9-1.4-5.4,0.2c-1.4,1.5-1.4,3.9,0.2,5.4l28,26.6L311.9,305c-6.3,2.3-13,1.4-18.5-2.3
	c-5.5-3.9-8.6-9.8-8.6-16.6v-34.4l0-70.1c0-2.1-1.7-3.8-3.8-3.8c-2.1,0-3.8,1.7-3.8,3.8v70.2c0,11.8-3.8,22.7-10.2,31.6l-33.8-89.7
	c-0.8-2-3-3-4.9-2.2c-2,0.8-3,3-2.2,4.9l35.5,93.8c-9.9,10-23.6,16.3-38.8,16.3c-2.1,0-3.8,1.7-3.8,3.8c0,2.1,1.7,3.8,3.8,3.8
	c18,0,34.3-7.8,45.6-20.1c0.2-0.2,0.5-0.5,0.6-0.7c3.2-3.6,6.1-7.5,8.4-11.7v4.7c0,9.1,4.5,17.6,11.9,22.8c4.7,3.3,10.3,5,15.9,5
	c3.3,0,6.5-0.5,9.6-1.7l37-13.6c1.2-0.5,2.1-1.5,2.4-2.8c0.3-1.3-0.2-2.6-1.1-3.5L320.5,261.5z"/>
<path class="st0" d="M198.5,177.8c-2.1,0-3.8,1.7-3.8,3.8v99.4c0,14-11.4,25.4-25.4,25.4s-25.4-11.4-25.4-25.4v-12.8
	c0-2.1-1.7-3.8-3.8-3.8c-2.1,0-3.8,1.7-3.8,3.8v12.8c0,18.2,14.8,33,33,33s33-14.8,33-33v-99.4C202.3,179.5,200.6,177.8,198.5,177.8
	L198.5,177.8z"/>
</svg>
