<?xml version="1.0" encoding="utf-8"?>
<!-- Generator: Adobe Illustrator 23.0.6, SVG Export Plug-In . SVG Version: 6.00 Build 0)  -->
<svg version="1.0" id="Layer_1" xmlns="http://www.w3.org/2000/svg" xmlns:xlink="http://www.w3.org/1999/xlink" x="0px" y="0px"
	 viewBox="0 0 471.5 463.7" style="enable-background:new 0 0 471.5 463.7;" xml:space="preserve">
<style type="text/css">
	.st0{fill:#A88683;}
</style>
<path class="st0" d="M81.8,463.7h308c13.4,0,26.2-5.3,35.6-14.8c9.5-9.5,14.8-22.3,14.8-35.6V235.2c8.5-0.6,16.5-4.4,22.3-10.6
	c5.8-6.2,9.1-14.5,9-23v-44.8c0-8.9-3.5-17.5-9.8-23.8c-6.3-6.3-14.8-9.8-23.8-9.8h-50.4c18.3-13,29.1-34.1,29.1-56.6
	c0.5-17.3-6-34.1-18-46.6c-12-12.5-28.5-19.7-45.8-20c-37.5,0-70.6,21.8-95.8,63.3h0c-8.4,14.5-15.5,29.6-21.3,45.4
	c-5.7-15.7-12.9-30.9-21.3-45.4C189.3,21.8,156.2,0,118.7,0c-17.3,0.3-33.8,7.5-45.8,20c-12,12.5-18.5,29.3-18,46.6
	c0,22.5,10.8,43.5,29.1,56.6H33.6c-8.9,0-17.5,3.5-23.8,9.8C3.5,139.3,0,147.9,0,156.8v44.8c0,8.5,3.2,16.8,9,23
	c5.8,6.2,13.8,10,22.3,10.6v178.1c0,13.4,5.3,26.2,14.8,35.6C55.6,458.4,68.4,463.7,81.8,463.7L81.8,463.7z M81.8,452.5
	c-10.4,0-20.4-4.1-27.7-11.5c-7.4-7.4-11.5-17.3-11.5-27.7V235.2h187.6v217.3L81.8,452.5z M389.8,452.5H241.4V235.2H429v178.1
	c0,10.4-4.1,20.4-11.5,27.7C410.1,448.4,400.2,452.5,389.8,452.5L389.8,452.5z M437.9,134.4L437.9,134.4c6-0.2,11.8,2.2,16,6.4
	s6.5,10,6.4,16v44.8c0,5.9-2.4,11.6-6.6,15.8c-4.2,4.2-9.9,6.6-15.8,6.6H241.4v-89.6L437.9,134.4z M352.8,11.2L352.8,11.2
	c14.4,0.3,28,6.3,37.9,16.7c9.9,10.4,15.2,24.4,14.7,38.7c0,30.2-24.1,56.6-52.6,56.6H243C250.3,99.7,282.2,11.2,352.8,11.2
	L352.8,11.2z M66.1,66.6c-0.5-14.4,4.9-28.3,14.7-38.7c9.9-10.4,23.5-16.4,37.9-16.7c70.6,0,102.5,88.5,109.8,112H118.7
	C90.2,123.2,66.1,96.9,66.1,66.6z M11.2,201.6v-44.8c-0.2-6,2.2-11.8,6.4-16s10-6.5,16-6.4h196.6V224H33.6c-5.9,0-11.6-2.4-15.8-6.6
	C13.6,213.2,11.2,207.5,11.2,201.6L11.2,201.6z"/>
</svg>
