<?xml version="1.0" encoding="utf-8"?>
<!-- Generator: Adobe Illustrator 23.0.6, SVG Export Plug-In . SVG Version: 6.00 Build 0)  -->
<svg version="1.0" id="Layer_1" xmlns="http://www.w3.org/2000/svg" xmlns:xlink="http://www.w3.org/1999/xlink" x="0px" y="0px"
	 viewBox="0 0 483.2 323.3" style="enable-background:new 0 0 483.2 323.3;" xml:space="preserve">
<style type="text/css">
	.st0{fill-rule:evenodd;clip-rule:evenodd;fill:#A88683;}
</style>
<g>
	<path class="st0" d="M362.7,99.4c-3.1,0-5.6,2.5-5.6,5.6v54.5c0,3.1,2.5,5.6,5.6,5.6h77c2.1,0,4-1.2,5-3c1-1.9,0.8-4.1-0.4-5.8
		l-38.8-54.5c-1.1-1.5-2.8-2.4-4.6-2.4L362.7,99.4z M368.3,110.6H398l30.8,43.3h-60.6L368.3,110.6L368.3,110.6z"/>
	<path class="st0" d="M30,0C13.5,0,0,13.5,0,30v194.4c0,16.5,13.5,30,30,30h39.2c3.7,20.8,21.9,36.6,43.8,36.6
		c21.8,0,40-15.8,43.8-36.6h204.7c3.8,20.8,22,36.6,43.8,36.6s40-15.8,43.8-36.6h8.9c13,0,23.6-10.7,23.6-23.6V159h0
		c0.1-0.8,0-1.6-0.2-2.4c0-0.1-0.1-0.2-0.1-0.3h0c0,0,0,0,0,0c-0.3-0.7-0.6-1.4-1.2-1.9l-60.2-83.6v0c-1.1-1.5-2.7-2.3-4.5-2.3
		l-78.1-0.1V30c0-16.5-13.5-30-30-30L30,0L30,0z M30,11.2h277.3c10.4,0,18.8,8.4,18.8,18.8v213.2H157.3c-1.7-23-21-41.3-44.4-41.3
		c-23.4,0-42.7,18.2-44.4,41.3H30c-10.4,0-18.8-8.4-18.8-18.8V30C11.2,19.6,19.6,11.2,30,11.2L30,11.2z M337.3,79.6l75.2,0.1
		l57.9,80.4v70.6c0,6.8-5.6,12.4-12.4,12.4h-8.3c-1.7-23-21-41.3-44.4-41.3c-23.4,0-42.7,18.2-44.4,41.3h-23.6L337.3,79.6z
		 M113,213.1c18.4,0,33.3,14.8,33.3,33.4v0.6c-0.3,18.1-15,32.7-33.3,32.7c-18.4,0-33.2-14.8-33.3-33.2l0,0v-0.1
		C79.7,228,94.5,213.1,113,213.1L113,213.1z M405.2,213.1c18.4,0,33.3,14.8,33.3,33.4c0,18.4-14.9,33.3-33.3,33.3
		c-18.4,0-33.3-14.9-33.3-33.3C371.9,227.9,386.8,213.1,405.2,213.1z"/>
	<path class="st0" d="M176.5,78.5c-1.5,0-2.9,0.6-4,1.6c-1.1,1.1-1.7,2.5-1.7,4s0.6,2.9,1.7,4c1.1,1.1,2.5,1.6,4,1.6h109.8
		c1.5,0,2.9-0.6,4-1.6c1.1-1.1,1.7-2.5,1.7-4s-0.6-2.9-1.7-4c-1.1-1.1-2.5-1.6-4-1.6H176.5z"/>
	<path class="st0" d="M126.2,128.7c-1.5,0-2.9,0.6-4,1.6c-1.1,1.1-1.7,2.5-1.7,4c0,1.5,0.6,2.9,1.7,4c1.1,1.1,2.5,1.6,4,1.6h160.1
		c1.5,0,2.9-0.6,4-1.6c1.1-1.1,1.7-2.5,1.7-4c0-1.5-0.6-2.9-1.7-4c-1.1-1.1-2.5-1.6-4-1.6L126.2,128.7z"/>
	<path class="st0" d="M22.2,312.1c-1.5,0-2.9,0.6-4,1.6c-1.1,1.1-1.7,2.5-1.7,4s0.6,2.9,1.7,4c1.1,1.1,2.5,1.6,4,1.6h425.4
		c1.5,0,2.9-0.6,4-1.6c1.1-1.1,1.7-2.5,1.7-4s-0.6-2.9-1.7-4c-1.1-1.1-2.5-1.6-4-1.6H22.2z"/>
</g>
</svg>
