<?xml version="1.0" encoding="UTF-8"?>
<svg width="20px" height="20px" version="1.1" viewBox="0 0 700 700" xmlns="http://www.w3.org/2000/svg" xmlns:xlink="http://www.w3.org/1999/xlink" fill="#FCFCFD">
 <defs>
  <symbol id="l" overflow="visible">
   <path d="m29.312-1.75c-1.5117 0.78125-3.0898 1.3711-4.7344 1.7656-1.6367 0.40625-3.3398 0.60938-5.1094 0.60938-5.3125 0-9.5273-1.4844-12.641-4.4531-3.1055-2.9688-4.6562-7-4.6562-12.094s1.5508-9.125 4.6562-12.094c3.1133-2.9688 7.3281-4.4531 12.641-4.4531 1.7695 0 3.4727 0.19922 5.1094 0.59375 1.6445 0.39844 3.2227 0.99219 4.7344 1.7812v6.5938c-1.5312-1.0391-3.0391-1.8008-4.5156-2.2812-1.4805-0.48828-3.0391-0.73438-4.6719-0.73438-2.9375 0-5.2461 0.94531-6.9219 2.8281-1.6797 1.875-2.5156 4.4648-2.5156 7.7656 0 3.293 0.83594 5.8828 2.5156 7.7656 1.6758 1.875 3.9844 2.8125 6.9219 2.8125 1.6328 0 3.1914-0.23828 4.6719-0.71875 1.4766-0.48828 2.9844-1.2539 4.5156-2.2969z"/>
  </symbol>
  <symbol id="b" overflow="visible">
   <path d="m21.453-17.406c-0.67969-0.3125-1.3516-0.53906-2.0156-0.6875-0.65625-0.15625-1.3203-0.23438-1.9844-0.23438-1.9688 0-3.4844 0.63281-4.5469 1.8906-1.0547 1.2617-1.5781 3.0703-1.5781 5.4219v11.016h-7.6562v-23.922h7.6562v3.9219c0.97656-1.5625 2.1016-2.7031 3.375-3.4219 1.2812-0.71875 2.8125-1.0781 4.5938-1.0781 0.25 0 0.52344 0.011719 0.82812 0.03125 0.30078 0.023438 0.73438 0.070312 1.2969 0.14062z"/>
  </symbol>
  <symbol id="a" overflow="visible">
   <path d="m27.562-12.031v2.1875h-17.891c0.1875 1.793 0.83203 3.1367 1.9375 4.0312 1.1133 0.89844 2.6719 1.3438 4.6719 1.3438 1.6016 0 3.25-0.23438 4.9375-0.70312 1.6875-0.47656 3.4219-1.2031 5.2031-2.1719v5.8906c-1.8047 0.6875-3.6094 1.2031-5.4219 1.5469-1.8125 0.35156-3.6211 0.53125-5.4219 0.53125-4.3359 0-7.7031-1.0977-10.109-3.2969-2.3984-2.207-3.5938-5.2969-3.5938-9.2656 0-3.9062 1.1758-6.9727 3.5312-9.2031 2.3633-2.2383 5.6094-3.3594 9.7344-3.3594 3.7578 0 6.7695 1.1367 9.0312 3.4062 2.2578 2.2617 3.3906 5.2812 3.3906 9.0625zm-7.8594-2.5312c0-1.457-0.42969-2.6289-1.2812-3.5156-0.84375-0.89453-1.9492-1.3438-3.3125-1.3438-1.4922 0-2.6992 0.41797-3.625 1.25-0.91797 0.83594-1.4922 2.0391-1.7188 3.6094z"/>
  </symbol>
  <symbol id="h" overflow="visible">
   <path d="m14.391-10.766c-1.5938 0-2.793 0.27344-3.5938 0.8125-0.80469 0.54297-1.2031 1.3398-1.2031 2.3906 0 0.96875 0.32031 1.7305 0.96875 2.2812 0.64453 0.54297 1.5469 0.8125 2.7031 0.8125 1.4375 0 2.6445-0.51562 3.625-1.5469 0.98828-1.0312 1.4844-2.3203 1.4844-3.875v-0.875zm11.688-2.8906v13.656h-7.7031v-3.5469c-1.0312 1.4492-2.1875 2.5078-3.4688 3.1719s-2.8398 1-4.6719 1c-2.4805 0-4.4961-0.72266-6.0469-2.1719-1.543-1.4453-2.3125-3.3203-2.3125-5.625 0-2.8125 0.96094-4.8672 2.8906-6.1719 1.9375-1.3125 4.9688-1.9688 9.0938-1.9688h4.5156v-0.60938c0-1.207-0.48047-2.0938-1.4375-2.6562-0.94922-0.5625-2.4375-0.84375-4.4688-0.84375-1.6367 0-3.1562 0.16797-4.5625 0.5-1.4062 0.32422-2.7188 0.8125-3.9375 1.4688v-5.8281c1.6445-0.40625 3.2891-0.70703 4.9375-0.90625 1.6562-0.20703 3.3047-0.3125 4.9531-0.3125 4.3203 0 7.4375 0.85547 9.3438 2.5625 1.9141 1.6992 2.875 4.4609 2.875 8.2812z"/>
  </symbol>
  <symbol id="g" overflow="visible">
   <path d="m12.031-30.719v6.7969h7.875v5.4688h-7.875v10.141c0 1.1172 0.21875 1.8711 0.65625 2.2656 0.4375 0.38672 1.3125 0.57812 2.625 0.57812h3.9375v5.4688h-6.5625c-3.0234 0-5.1641-0.62891-6.4219-1.8906-1.2617-1.2578-1.8906-3.3984-1.8906-6.4219v-10.141h-3.7969v-5.4688h3.7969v-6.7969z"/>
  </symbol>
  <symbol id="f" overflow="visible">
   <path d="m19.953-20.422v-12.812h7.6875v33.234h-7.6875v-3.4531c-1.0547 1.4062-2.2148 2.4375-3.4844 3.0938-1.2734 0.65625-2.7422 0.98438-4.4062 0.98438-2.9492 0-5.3711-1.1719-7.2656-3.5156-1.8867-2.3438-2.8281-5.3594-2.8281-9.0469s0.94141-6.7031 2.8281-9.0469c1.8945-2.3438 4.3164-3.5156 7.2656-3.5156 1.6562 0 3.1172 0.33594 4.3906 1 1.2812 0.65625 2.4453 1.6836 3.5 3.0781zm-5.0469 15.484c1.6445 0 2.8945-0.59766 3.75-1.7969 0.86328-1.1953 1.2969-2.9297 1.2969-5.2031 0-2.2812-0.43359-4.0195-1.2969-5.2188-0.85547-1.1953-2.1055-1.7969-3.75-1.7969-1.625 0-2.8711 0.60156-3.7344 1.7969-0.85547 1.1992-1.2812 2.9375-1.2812 5.2188 0 2.2734 0.42578 4.0078 1.2812 5.2031 0.86328 1.1992 2.1094 1.7969 3.7344 1.7969z"/>
  </symbol>
  <symbol id="e" overflow="visible">
   <path d="m16.406-4.9375c1.6328 0 2.8828-0.59766 3.75-1.7969 0.86328-1.1953 1.2969-2.9297 1.2969-5.2031 0-2.2812-0.43359-4.0195-1.2969-5.2188-0.86719-1.1953-2.1172-1.7969-3.75-1.7969-1.6367 0-2.8906 0.60547-3.7656 1.8125-0.875 1.1992-1.3125 2.9336-1.3125 5.2031 0 2.2617 0.4375 3.9961 1.3125 5.2031 0.875 1.1992 2.1289 1.7969 3.7656 1.7969zm-5.0781-15.484c1.0508-1.3945 2.2188-2.4219 3.5-3.0781 1.2812-0.66406 2.7539-1 4.4219-1 2.9453 0 5.3672 1.1719 7.2656 3.5156 1.8945 2.3438 2.8438 5.3594 2.8438 9.0469s-0.94922 6.7031-2.8438 9.0469c-1.8984 2.3438-4.3203 3.5156-7.2656 3.5156-1.668 0-3.1406-0.33594-4.4219-1s-2.4492-1.6914-3.5-3.0781v3.4531h-7.6562v-33.234h7.6562z"/>
  </symbol>
  <symbol id="d" overflow="visible">
   <path d="m0.53125-23.922h7.6562l6.4219 16.234 5.4688-16.234h7.6562l-10.062 26.188c-1.0117 2.6641-2.1953 4.5234-3.5469 5.5781-1.3438 1.0625-3.1211 1.5938-5.3281 1.5938h-4.4219v-5.0156h2.3906c1.3008 0 2.2422-0.21094 2.8281-0.625 0.59375-0.40625 1.0547-1.1484 1.3906-2.2188l0.20312-0.65625z"/>
  </symbol>
  <symbol id="c" overflow="visible">
   <path d="m16.797-19.547c1.2891 0 2.2695-0.28125 2.9375-0.84375 0.67578-0.57031 1.0156-1.4141 1.0156-2.5312 0-1.0938-0.33984-1.9258-1.0156-2.5-0.66797-0.58203-1.6484-0.875-2.9375-0.875h-4.5625v6.75zm0.26562 13.953c1.6562 0 2.8984-0.34766 3.7344-1.0469 0.83203-0.69531 1.25-1.7539 1.25-3.1719 0-1.375-0.41797-2.4062-1.25-3.0938-0.82422-0.69531-2.0703-1.0469-3.7344-1.0469h-4.8281v8.3594zm7.6562-11.469c1.7578 0.51172 3.125 1.4609 4.0938 2.8438 0.96875 1.375 1.4531 3.0703 1.4531 5.0781 0 3.0742-1.043 5.3672-3.125 6.875-2.0742 1.5117-5.2305 2.2656-9.4688 2.2656h-13.656v-31.891h12.344c4.4258 0 7.6328 0.67188 9.625 2.0156 1.9883 1.3359 2.9844 3.4766 2.9844 6.4219 0 1.5547-0.36719 2.875-1.0938 3.9688-0.73047 1.0859-1.7812 1.8906-3.1562 2.4219z"/>
  </symbol>
  <symbol id="k" overflow="visible">
   <path d="m23-23.172v6.2344c-1.0312-0.71875-2.0742-1.2422-3.125-1.5781-1.043-0.34375-2.125-0.51562-3.25-0.51562-2.1367 0-3.8047 0.625-5 1.875-1.1875 1.2422-1.7812 2.9805-1.7812 5.2188 0 2.2305 0.59375 3.9688 1.7812 5.2188 1.1953 1.25 2.8633 1.875 5 1.875 1.1953 0 2.332-0.17578 3.4062-0.53125 1.0703-0.36328 2.0625-0.89453 2.9688-1.5938v6.2656c-1.1875 0.4375-2.4023 0.76562-3.6406 0.98438-1.2305 0.22656-2.4648 0.34375-3.7031 0.34375-4.3125 0-7.6875-1.1094-10.125-3.3281s-3.6562-5.2969-3.6562-9.2344c0-3.9453 1.2188-7.0234 3.6562-9.2344 2.4375-2.2188 5.8125-3.3281 10.125-3.3281 1.25 0 2.4844 0.10938 3.7031 0.32812s2.4297 0.55469 3.6406 1z"/>
  </symbol>
  <symbol id="j" overflow="visible">
   <path d="m3.6719-23.922h7.6562v23.922h-7.6562zm0-9.3125h7.6562v6.2344h-7.6562z"/>
  </symbol>
  <symbol id="i" overflow="visible">
   <path d="m22.359-23.172v5.7969c-1.6367-0.67578-3.2148-1.1875-4.7344-1.5312-1.5234-0.34375-2.9609-0.51562-4.3125-0.51562-1.4609 0-2.543 0.18359-3.25 0.54688-0.69922 0.36719-1.0469 0.92188-1.0469 1.6719 0 0.61719 0.26562 1.0898 0.79688 1.4219 0.53125 0.32422 1.4883 0.5625 2.875 0.71875l1.3438 0.1875c3.9141 0.5 6.5508 1.3242 7.9062 2.4688 1.3516 1.1367 2.0312 2.9219 2.0312 5.3594 0 2.5547-0.94531 4.4688-2.8281 5.75-1.875 1.2812-4.6797 1.9219-8.4062 1.9219-1.5859 0-3.2188-0.125-4.9062-0.375s-3.4219-0.625-5.2031-1.125v-5.8125c1.5195 0.74219 3.082 1.2969 4.6875 1.6719 1.6016 0.36719 3.2344 0.54688 4.8906 0.54688 1.4883 0 2.6094-0.20312 3.3594-0.60938 0.75781-0.41406 1.1406-1.0312 1.1406-1.8438 0-0.6875-0.26172-1.1953-0.78125-1.5312-0.52344-0.33203-1.5586-0.59375-3.1094-0.78125l-1.3438-0.17188c-3.4062-0.42578-5.793-1.2109-7.1562-2.3594-1.3672-1.1562-2.0469-2.9102-2.0469-5.2656 0-2.5312 0.86719-4.4062 2.6094-5.625 1.7383-1.2266 4.3984-1.8438 7.9844-1.8438 1.4062 0 2.8828 0.10938 4.4375 0.32812 1.5508 0.21094 3.2383 0.54297 5.0625 1z"/>
  </symbol>
 </defs>
 <g>
  <path d="m332.5 341.25h17.5v17.5h-17.5z"/>
  <path d="m350 385h17.5v17.5h-17.5z"/>
  <path d="m350 437.5h17.5v17.5h-17.5z"/>
  <path d="m107.74 394.51c6.2578-10.422 17.316-17.195 29.34-18.148l41.203 32.969c1.5586 1.2461 3.4727 1.918 5.4688 1.918h26.25c4.1055 0 7.6484-2.8516 8.5469-6.8516l11.586-52.133c0.66406-2.9844 1.8281-5.7227 3.3867-8.1641 0.12109-0.15625 0.28125-0.28125 0.38672-0.44531 3.4375-5.0742 8.5234-8.6094 14.234-10.195 0.32422-0.085938 0.64844-0.18359 0.98047-0.25391 1.8359-0.42969 3.7188-0.69922 5.6445-0.69922 1.8633 0 3.6836 0.22656 5.4609 0.62891 0.32422 0.070312 0.62109 0.21094 0.9375 0.28906 1.4883 0.40234 2.9492 0.89062 4.332 1.5664 0.21094 0.097656 0.40234 0.22656 0.60547 0.32422 1.5156 0.78906 2.9766 1.6992 4.3242 2.793 0.035157 0.027344 0.070313 0.0625 0.10547 0.085937 1.4609 1.1992 2.8086 2.5742 4.0156 4.1133 0.050781 0.070312 0.13281 0.11328 0.18359 0.18359 3.2578 4.2422 5.2695 9.4922 5.2695 15.242v84.895l-38.621 38.621h-62.754l-14.938-14.938-12.371 12.371 17.5 17.5c1.6328 1.6484 3.8555 2.5664 6.1836 2.5664h4.5781l-12.695 31.746c-1.0781 2.6953-0.74219 5.75 0.88281 8.1562 1.6172 2.4023 4.3281 3.8477 7.2344 3.8477h26.25v-17.5h-13.328l10.508-26.25h14.395l15.305 38.254c1.3672 3.4062 4.6367 5.4961 8.1211 5.4961 0.91016 0 1.8555-0.14844 2.7656-0.44531l26.25-8.75-5.5391-16.598-18.418 6.1406-9.6367-24.098h13.328c2.3281 0 4.5508-0.91797 6.1875-2.5625l43.75-43.75c1.6445-1.6367 2.5625-3.8672 2.5625-6.1875v-30.625l31.5-23.625c2.2031-1.6445 3.5-4.2422 3.5-7s-1.2969-5.3477-3.5-7l-31.867-23.895c-0.57812-6.7539-2.6523-13.047-6.0195-18.543l14.684-44.039c1.0508-3.1406 0.22656-6.6133-2.1094-8.9531-2.3438-2.3555-5.8203-3.168-8.9531-2.1172l-21.113 7.043-13.676-13.676c-3.4219-3.4219-8.9531-3.4219-12.371 0l-13.676 13.676-21.113-7.043c-3.1484-1.0508-6.6133-0.23438-8.9531 2.1172-2.3438 2.3438-3.1602 5.8086-2.1094 8.9531l15.41 46.242c-1.75 3.332-3.2188 6.8594-4.0703 10.711l-10.078 45.273h-16.172l-41.352-33.082c-1.5508-1.2461-3.4648-1.918-5.4609-1.918-19.242 0-37.355 10.246-47.258 26.758l-12.738 21.246 15.008 8.9961zm189.76-0.76172v-17.5l11.664 8.75zm-64.016-87.945c3.1484 1.0586 6.6133 0.22656 8.9531-2.1172l11.312-11.316 11.312 11.312c2.3438 2.3438 5.8086 3.168 8.9531 2.1172l9.6523-3.2188-6.3281 18.961c-1.1289-0.71875-2.3438-1.2695-3.543-1.8633-2.0664-1.043-4.2188-1.8711-6.457-2.5742-0.55078-0.16797-1.0859-0.36719-1.6367-0.50781-1.8477-0.48828-3.7344-0.82422-5.6797-1.0664-0.050782-0.007812-0.10547-0.007812-0.15625-0.015625-1.6914-0.19922-3.3516-0.51562-5.1016-0.51562-8.8477 0-17.02 2.7656-23.887 7.3867-0.12109 0.078125-0.25391 0.14062-0.375 0.21875l-6.6758-20.02z"/>
  <path d="m162.3 436.07-9.5898-14.641c-8.1562 5.3477-14.902 12.094-20.055 20.062-12.504 19.32-11.656 39.531-10.047 49.848l17.297-2.7031c-1.2344-7.8594-1.8984-23.195 7.4531-37.652 3.8086-5.8945 8.8477-10.918 14.941-14.914z"/>
  <path d="m136.05 409.82-9.5898-14.641c-8.1562 5.3477-14.902 12.094-20.055 20.062-12.504 19.32-11.656 39.531-10.047 49.848l17.297-2.7031c-1.2344-7.8594-1.8984-23.195 7.4531-37.652 3.8086-5.8945 8.8477-10.918 14.941-14.914z"/>
  <path d="m245 358.75h17.5v17.5h-17.5z"/>
  <path d="m306.25 525h17.5v17.5h-17.5z"/>
  <path d="m341.25 490h17.5v17.5h-17.5z"/>
  <path d="m516.25 262.5h-52.5c-4.8398 0-8.75 3.9219-8.75 8.75v26.25c0 14.473 11.777 26.25 26.25 26.25h17.5c14.473 0 26.25-11.777 26.25-26.25v-26.25c0-4.8281-3.9102-8.75-8.75-8.75zm-8.75 35c0 4.8203-3.9219 8.75-8.75 8.75h-17.5c-4.8281 0-8.75-3.9297-8.75-8.75v-17.5h35z"/>
  <path d="m428.75 542.5h122.5c4.8398 0 8.75-3.9219 8.75-8.75v-183.75h43.75c4.8398 0 8.75-3.9219 8.75-8.75v-90.914c0-5.25-1.5469-10.324-4.4727-14.656l-30.809-45.781c-7.543-14.602-22.371-23.648-38.848-23.648h-5.5898c11.383-11.129 18.469-26.617 18.469-43.75 0-33.773-27.484-61.25-61.25-61.25s-61.25 27.477-61.25 61.25c0 17.133 7.0859 32.621 18.473 43.75h-5.5898c-16.668 0-31.668 9.2656-39.129 24.184l-14.16 28.316h-55.844c-4.8398 0-8.75 3.9219-8.75 8.75v52.5c0 4.8281 3.9102 8.75 8.75 8.75h70c6.0195 0 11.91-1.043 17.5-3.0703v248.07c0 4.8281 3.9102 8.75 8.75 8.75zm70-17.5v-157.5h-17.5v157.5h-43.75v-251.33l22.453-37.422h60.094l22.453 37.422v251.33zm17.5-341.25v35h-52.5v-35zm45.598 14.508c0.17578 0.33984 0.35938 0.65625 0.55859 0.97266l31.105 46.234c0.97266 1.4414 1.4883 3.1211 1.4883 4.8711v82.164h-35v-61.441c0-1.5938-0.54297-3-1.2773-4.2891l0.035156-0.015625-25.008-41.676v-41.328h4.6211c10.008 0 18.996 5.5547 23.477 14.508zm-115.6-75.758c0-24.125 19.625-43.75 43.75-43.75s43.75 19.625 43.75 43.75-19.625 43.75-43.75 43.75-43.75-19.625-43.75-43.75zm-43.75 148.75h-61.25v-35h47.094c6.6836 0 12.68-3.7109 15.652-9.668l14.156-28.316c4.4805-8.9609 13.469-14.516 23.477-14.516h4.6211v41.328l-23.793 39.645c-5.9922 4.2266-12.852 6.5273-19.957 6.5273z"/>
  <path d="m198.76 140h52.5c4.8398 0 8.75-3.9219 8.75-8.75v-35c0-4.8281-3.9102-8.75-8.75-8.75h-52.5c-4.8398 0-8.75 3.9219-8.75 8.75v35c0 4.8281 3.9102 8.75 8.75 8.75zm8.75-35h35v17.5h-35z"/>
  <path d="m96.25 245h201.25c4.8398 0 8.75-3.9219 8.75-8.75v-113.75h17.5c3.2812 0 6.2812-1.8281 7.7891-4.7422 1.4961-2.9141 1.2422-6.4219-0.66406-9.0898l-43.75-61.25c-0.83203-1.1641-1.9336-2.1016-3.2031-2.7383l-52.5-26.25c-2.457-1.2344-5.3633-1.2344-7.832 0l-41.457 20.73c-9.7578-13.516-25.203-21.66-42.133-21.66-28.953 0-52.5 23.547-52.5 52.5v166.25c0 4.8281 3.9102 8.75 8.75 8.75zm8.75-157.5h34.246l-15.121 21.168c-1.9062 2.668-2.1602 6.1758-0.66406 9.0898 1.5078 2.9141 4.5078 4.7422 7.7891 4.7422h17.5v105h-43.75zm107.63 113.75-13.879 13.879v-27.754zm12.375 12.371 13.875 13.879h-27.754zm12.371-12.371 13.879-13.879v27.754zm-12.371-12.371-13.879-13.879h27.754zm2.4922-152.85 46.645 23.32 32.605 45.648h-9.25c-4.8398 0-8.75 3.9219-8.75 8.75v113.75h-19.992v-61.25c0-4.8281-3.9102-8.75-8.75-8.75h-70c-4.8398 0-8.75 3.9219-8.75 8.75v61.25h-15.008v-113.75c0-4.8281-3.9102-8.75-8.75-8.75h-9.25l15.121-21.168 17.484-24.484 1.9766-0.98047c0.007813 0 0.007813-0.007813 0.015625-0.007813zm-87.5-1.0312c10.781 0 20.703 4.9688 27.23 13.328l-5.1641 7.2266-10.316 14.445h-46.75c0-19.301 15.699-35 35-35z"/>
  <path d="m341.25 525h17.5v17.5h-17.5z"/>
  <path d="m376.25 525h17.5v17.5h-17.5z"/>
  <path d="m338.31 21.875c-2.9062 0-3.9297-0.76953-6.3945-2.625-3.2539-2.4414-8.1641-6.125-16.914-6.125v17.5c2.9062 0 3.9297 0.76953 6.3945 2.625 3.2539 2.4414 8.1641 6.125 16.914 6.125s13.668-3.6836 16.922-6.125c2.4766-1.8555 3.5-2.625 6.4219-2.625s3.9453 0.76953 6.4219 2.625c3.2578 2.4414 8.1758 6.125 16.926 6.125v-17.5c-2.9219 0-3.9453-0.76953-6.4219-2.625-3.2461-2.4336-8.1719-6.125-16.922-6.125s-13.668 3.6836-16.922 6.125c-2.4766 1.8555-3.5 2.625-6.4258 2.625z"/>
  <path d="m398.98 77c2.4766-1.8555 3.5-2.625 6.4219-2.625s3.9453 0.76953 6.4219 2.625c3.2539 2.4414 8.1719 6.125 16.922 6.125v-17.5c-2.9219 0-3.9453-0.76953-6.4219-2.625-3.2461-2.4336-8.1719-6.125-16.922-6.125s-13.668 3.6836-16.922 6.125c-2.4766 1.8555-3.5 2.625-6.4219 2.625-2.9062 0-3.9297-0.76953-6.3945-2.625-3.2578-2.4414-8.168-6.125-16.918-6.125v17.5c2.9062 0 3.9297 0.76953 6.3945 2.625 3.2539 2.4414 8.1641 6.125 16.914 6.125s13.676-3.6836 16.926-6.125z"/>
  <path d="m547.73 33.25c2.4766-1.8555 3.5-2.625 6.4219-2.625s3.9453 0.76953 6.4219 2.625c3.2539 2.4414 8.1719 6.125 16.922 6.125v-17.5c-2.9219 0-3.9453-0.76953-6.4219-2.625-3.2461-2.4336-8.1719-6.125-16.922-6.125s-13.668 3.6836-16.922 6.125c-2.4766 1.8555-3.5 2.625-6.4219 2.625-2.9062 0-3.9297-0.76953-6.3945-2.625-3.2578-2.4414-8.168-6.125-16.918-6.125v17.5c2.9062 0 3.9297 0.76953 6.3945 2.625 3.2539 2.4414 8.1641 6.125 16.914 6.125s13.676-3.6836 16.926-6.125z"/>
  <path d="m612.5 65.625c-2.9219 0-3.9453-0.76953-6.4219-2.625-3.2461-2.4336-8.1719-6.125-16.922-6.125s-13.668 3.6836-16.922 6.125c-2.4766 1.8555-3.5 2.625-6.4219 2.625-2.9062 0-3.9297-0.76953-6.3945-2.625-3.2578-2.4414-8.168-6.125-16.918-6.125v17.5c2.9062 0 3.9297 0.76953 6.3945 2.625 3.2539 2.4414 8.1641 6.125 16.914 6.125s13.668-3.6836 16.922-6.125c2.4766-1.8555 3.5-2.625 6.4219-2.625s3.9453 0.76953 6.4219 2.625c3.2578 2.4414 8.1758 6.125 16.926 6.125z"/>
  <use x="70" y="691.25" xlink:href="#l"/>
  <use x="102.109375" y="691.25" xlink:href="#b"/>
  <use x="123.683594" y="691.25" xlink:href="#a"/>
  <use x="153.355469" y="691.25" xlink:href="#h"/>
  <use x="182.878906" y="691.25" xlink:href="#g"/>
  <use x="203.792969" y="691.25" xlink:href="#a"/>
  <use x="233.464844" y="691.25" xlink:href="#f"/>
  <use x="280.011719" y="691.25" xlink:href="#e"/>
  <use x="311.328125" y="691.25" xlink:href="#d"/>
  <use x="355.078125" y="691.25" xlink:href="#c"/>
  <use x="388.425781" y="691.25" xlink:href="#a"/>
  <use x="418.097656" y="691.25" xlink:href="#k"/>
  <use x="444.03125" y="691.25" xlink:href="#b"/>
  <use x="465.609375" y="691.25" xlink:href="#j"/>
  <use x="480.605469" y="691.25" xlink:href="#i"/>
 </g>
</svg>
