<?xml version="1.0" encoding="utf-8"?>
<!-- Generator: Adobe Illustrator 23.0.6, SVG Export Plug-In . SVG Version: 6.00 Build 0)  -->
<svg version="1.1" id="Layer_1" xmlns="http://www.w3.org/2000/svg" xmlns:xlink="http://www.w3.org/1999/xlink" x="0px" y="0px"
	 viewBox="0 0 433.5 488.3" style="enable-background:new 0 0 433.5 488.3;" xml:space="preserve">
<style type="text/css">
	.st0{fill:#A88683;}
</style>
<path class="st0" d="M431,263.2c0-20.3-5.8-40.1-16.8-57.2v-10c0-108.1-90.4-196-201.6-196c-35.5-0.4-70.4,8.7-101.3,26.4
	c-30.8,17.6-56.3,43.2-74,74C19.8,131.2,10.7,166.1,11,201.6V216C-5.3,249-3.4,288,16,319.3c19.4,31.3,53.5,50.3,90.3,50.3
	c1.5,0,2.9-0.6,4-1.6c1-1.1,1.6-2.5,1.6-4V162.4v0c0-1.5-0.6-2.9-1.6-4c-1.1-1.1-2.5-1.6-4-1.6c-32.9,0-63.9,15.2-84,41.2
	c0.3-33.1,9.2-65.6,26.1-94.1C65.1,75.4,89.2,51.8,118,35.5c28.9-16.3,61.5-24.6,94.6-24.3c103.6,0,187.6,80.4,190.3,180.2
	c-20.1-22.1-48.6-34.6-78.4-34.6c-3.1,0-5.6,2.5-5.6,5.6V364v0c0,1.5,0.6,2.9,1.6,4c1.1,1.1,2.5,1.6,4,1.6c15.5,0,30.8-3.4,44.8-9.9
	c-1.2,20.9-10.4,40.5-25.6,54.8c-15.2,14.3-35.3,22.3-56.2,22.3h-20.4v-1.4c-0.3-17.9-9.7-34.3-24.9-43.6
	c-15.2-9.3-34.2-10.2-50.2-2.3c-16,7.9-26.9,23.4-28.8,41.2c-1.9,17.8,5.4,35.2,19.4,46.3c14,11.1,32.7,14.3,49.5,8.4
	c16.9-5.9,29.5-20,33.6-37.4h22c24.6-0.1,48.3-9.9,65.7-27.4c17.4-17.4,27.2-41.1,27.2-65.7h-2.4C410.9,335.9,431,301,431,263.2
	L431,263.2z M100.6,168l0,190.2c-32.6-1.9-61.9-20.5-77.7-49.1s-15.8-63.3,0-91.9s45.1-47.1,77.7-49.1L100.6,168z M215.4,476
	c-10.8,0-21.1-4.3-28.7-11.9c-7.6-7.6-11.9-17.9-11.9-28.7c0-10.8,4.3-21.1,11.9-28.7c7.6-7.6,17.9-11.9,28.7-11.9
	s21.1,4.3,28.7,11.9c7.6,7.6,11.9,17.9,11.9,28.7c0,10.8-4.3,21.1-11.9,28.7C236.5,471.7,226.2,476,215.4,476L215.4,476z
	 M330.2,358.4V168.2c32.6,1.9,61.9,20.5,77.7,49.1s15.8,63.3,0,91.9s-45.1,47.1-77.7,49.1V358.4z"/>
</svg>
