<?xml version="1.0" encoding="utf-8"?>
<!-- Generator: Adobe Illustrator 23.0.6, SVG Export Plug-In . SVG Version: 6.00 Build 0)  -->
<svg version="1.0" id="Layer_1" xmlns="http://www.w3.org/2000/svg" xmlns:xlink="http://www.w3.org/1999/xlink" x="0px" y="0px"
	 viewBox="0 0 700 700" style="enable-background:new 0 0 700 700;" xml:space="preserve">
<style type="text/css">
	.st0{fill:#FCFCFD;}
</style>
<g>
	<path class="st0" d="M371.8,341.3h17.5v17.5h-17.5V341.3z"/>
	<path class="st0" d="M389.3,385h17.5v17.5h-17.5V385z"/>
	<path class="st0" d="M389.3,437.5h17.5V455h-17.5V437.5z"/>
	<path class="st0" d="M147.1,394.5c6.3-10.4,17.3-17.2,29.3-18.1l41.2,33c1.6,1.2,3.5,1.9,5.5,1.9h26.3c4.1,0,7.6-2.9,8.5-6.9
		l11.6-52.1c0.7-3,1.8-5.7,3.4-8.2c0.1-0.2,0.3-0.3,0.4-0.4c3.4-5.1,8.5-8.6,14.2-10.2c0.3-0.1,0.6-0.2,1-0.3
		c1.8-0.4,3.7-0.7,5.6-0.7c1.9,0,3.7,0.2,5.5,0.6c0.3,0.1,0.6,0.2,0.9,0.3c1.5,0.4,2.9,0.9,4.3,1.6c0.2,0.1,0.4,0.2,0.6,0.3
		c1.5,0.8,3,1.7,4.3,2.8c0,0,0.1,0.1,0.1,0.1c1.5,1.2,2.8,2.6,4,4.1c0.1,0.1,0.1,0.1,0.2,0.2c3.3,4.2,5.3,9.5,5.3,15.2v84.9
		l-38.6,38.6h-62.8L203,466.3l-12.4,12.4l17.5,17.5c1.6,1.6,3.9,2.6,6.2,2.6h4.6l-12.7,31.7c-1.1,2.7-0.7,5.8,0.9,8.2
		c1.6,2.4,4.3,3.8,7.2,3.8h26.3V525h-13.3l10.5-26.3h14.4l15.3,38.3c1.4,3.4,4.6,5.5,8.1,5.5c0.9,0,1.9-0.1,2.8-0.4l26.3-8.8
		l-5.5-16.6l-18.4,6.1l-9.6-24.1h13.3c2.3,0,4.6-0.9,6.2-2.6l43.8-43.8c1.6-1.6,2.6-3.9,2.6-6.2v-30.6l31.5-23.6
		c2.2-1.6,3.5-4.2,3.5-7s-1.3-5.3-3.5-7l-31.9-23.9c-0.6-6.8-2.7-13-6-18.5l14.7-44c1.1-3.1,0.2-6.6-2.1-9c-2.3-2.4-5.8-3.2-9-2.1
		l-21.1,7l-13.7-13.7c-3.4-3.4-9-3.4-12.4,0l-13.7,13.7l-21.1-7c-3.1-1.1-6.6-0.2-9,2.1c-2.3,2.3-3.2,5.8-2.1,9l15.4,46.2
		c-1.8,3.3-3.2,6.9-4.1,10.7l-10.1,45.3h-16.2l-41.4-33.1c-1.6-1.2-3.5-1.9-5.5-1.9c-19.2,0-37.4,10.2-47.3,26.8l-12.7,21.2l15,9
		L147.1,394.5z M336.8,393.7v-17.5l11.7,8.8L336.8,393.7z M272.8,305.8c3.1,1.1,6.6,0.2,9-2.1l11.3-11.3l11.3,11.3
		c2.3,2.3,5.8,3.2,9,2.1l9.7-3.2l-6.3,19c-1.1-0.7-2.3-1.3-3.5-1.9c-2.1-1-4.2-1.9-6.5-2.6c-0.6-0.2-1.1-0.4-1.6-0.5
		c-1.8-0.5-3.7-0.8-5.7-1.1c-0.1,0-0.1,0-0.2,0c-1.7-0.2-3.4-0.5-5.1-0.5c-8.8,0-17,2.8-23.9,7.4c-0.1,0.1-0.3,0.1-0.4,0.2l-6.7-20
		L272.8,305.8z"/>
	<path class="st0" d="M201.6,436.1l-9.6-14.6c-8.2,5.3-14.9,12.1-20.1,20.1c-12.5,19.3-11.7,39.5-10,49.8l17.3-2.7
		c-1.2-7.9-1.9-23.2,7.5-37.7C190.5,445.1,195.5,440.1,201.6,436.1L201.6,436.1z"/>
	<path class="st0" d="M175.4,409.8l-9.6-14.6c-8.2,5.3-14.9,12.1-20.1,20.1c-12.5,19.3-11.7,39.5-10,49.8l17.3-2.7
		c-1.2-7.9-1.9-23.2,7.5-37.7C164.2,418.8,169.3,413.8,175.4,409.8L175.4,409.8z"/>
	<path class="st0" d="M284.3,358.8h17.5v17.5h-17.5V358.8z"/>
	<path class="st0" d="M345.6,525h17.5v17.5h-17.5V525z"/>
	<path class="st0" d="M380.6,490h17.5v17.5h-17.5V490z"/>
	<path class="st0" d="M555.6,262.5h-52.5c-4.8,0-8.8,3.9-8.8,8.8v26.3c0,14.5,11.8,26.3,26.3,26.3h17.5c14.5,0,26.3-11.8,26.3-26.3
		v-26.3C564.3,266.4,560.4,262.5,555.6,262.5z M546.8,297.5c0,4.8-3.9,8.8-8.8,8.8h-17.5c-4.8,0-8.8-3.9-8.8-8.8V280h35V297.5z"/>
	<path class="st0" d="M468.1,542.5h122.5c4.8,0,8.8-3.9,8.8-8.8V350h43.8c4.8,0,8.8-3.9,8.8-8.8v-90.9c0-5.3-1.5-10.3-4.5-14.7
		l-30.8-45.8c-7.5-14.6-22.4-23.6-38.8-23.6h-5.6c11.4-11.1,18.5-26.6,18.5-43.8c0-33.8-27.5-61.3-61.3-61.3s-61.3,27.5-61.3,61.3
		c0,17.1,7.1,32.6,18.5,43.8H481c-16.7,0-31.7,9.3-39.1,24.2l-14.2,28.3h-55.8c-4.8,0-8.8,3.9-8.8,8.8V280c0,4.8,3.9,8.8,8.8,8.8h70
		c6,0,11.9-1,17.5-3.1v248.1C459.3,538.6,463.2,542.5,468.1,542.5L468.1,542.5z M538.1,525V367.5h-17.5V525h-43.8V273.7l22.5-37.4
		h60.1l22.5,37.4V525H538.1z M555.6,183.8v35h-52.5v-35H555.6z M601.2,198.3c0.2,0.3,0.4,0.7,0.6,1l31.1,46.2c1,1.4,1.5,3.1,1.5,4.9
		v82.2h-35v-61.4c0-1.6-0.5-3-1.3-4.3l0,0l-25-41.7v-41.3h4.6C587.7,183.8,596.7,189.3,601.2,198.3L601.2,198.3z M485.6,122.5
		c0-24.1,19.6-43.8,43.7-43.8c24.1,0,43.8,19.6,43.8,43.8s-19.6,43.8-43.8,43.8S485.6,146.6,485.6,122.5L485.6,122.5z M441.8,271.3
		h-61.3v-35h47.1c6.7,0,12.7-3.7,15.7-9.7l14.2-28.3c4.5-9,13.5-14.5,23.5-14.5h4.6v41.3l-23.8,39.6
		C455.8,268.9,448.9,271.3,441.8,271.3L441.8,271.3z"/>
	<path class="st0" d="M238.1,140h52.5c4.8,0,8.8-3.9,8.8-8.8v-35c0-4.8-3.9-8.8-8.8-8.8h-52.5c-4.8,0-8.8,3.9-8.8,8.8v35
		C229.3,136.1,233.2,140,238.1,140L238.1,140z M246.8,105h35v17.5h-35V105z"/>
	<path class="st0" d="M135.6,245h201.3c4.8,0,8.8-3.9,8.8-8.8V122.5h17.5c3.3,0,6.3-1.8,7.8-4.7c1.5-2.9,1.2-6.4-0.7-9.1l-43.8-61.3
		c-0.8-1.2-1.9-2.1-3.2-2.7l-52.5-26.3c-2.5-1.2-5.4-1.2-7.8,0l-41.5,20.7c-9.8-13.5-25.2-21.7-42.1-21.7c-29,0-52.5,23.5-52.5,52.5
		v166.3C126.8,241.1,130.7,245,135.6,245L135.6,245z M144.3,87.5h34.2l-15.1,21.2c-1.9,2.7-2.2,6.2-0.7,9.1c1.5,2.9,4.5,4.7,7.8,4.7
		h17.5v105h-43.8L144.3,87.5z M251.9,201.3l-13.9,13.9v-27.8L251.9,201.3z M264.3,213.6l13.9,13.9h-27.8L264.3,213.6z M276.7,201.3
		l13.9-13.9v27.8L276.7,201.3z M264.3,188.9L250.4,175h27.8L264.3,188.9z M266.8,36l46.6,23.3l32.6,45.6h-9.3
		c-4.8,0-8.8,3.9-8.8,8.8v113.8h-20v-61.3c0-4.8-3.9-8.8-8.8-8.8h-70c-4.8,0-8.8,3.9-8.8,8.8v61.3h-15V113.7c0-4.8-3.9-8.8-8.8-8.8
		h-9.3l15.1-21.2l17.5-24.5l2-1c0,0,0,0,0,0L266.8,36z M179.3,35c10.8,0,20.7,5,27.2,13.3l-5.2,7.2L191.1,70h-46.8
		C144.3,50.7,160,35,179.3,35L179.3,35z"/>
	<path class="st0" d="M380.6,525h17.5v17.5h-17.5V525z"/>
	<path class="st0" d="M415.6,525h17.5v17.5h-17.5V525z"/>
	<path class="st0" d="M377.6,21.9c-2.9,0-3.9-0.8-6.4-2.6c-3.3-2.4-8.2-6.1-16.9-6.1v17.5c2.9,0,3.9,0.8,6.4,2.6
		c3.3,2.4,8.2,6.1,16.9,6.1s13.7-3.7,16.9-6.1c2.5-1.9,3.5-2.6,6.4-2.6s3.9,0.8,6.4,2.6c3.3,2.4,8.2,6.1,16.9,6.1V21.9
		c-2.9,0-3.9-0.8-6.4-2.6c-3.2-2.4-8.2-6.1-16.9-6.1s-13.7,3.7-16.9,6.1C381.6,21.1,380.6,21.9,377.6,21.9L377.6,21.9z"/>
	<path class="st0" d="M438.3,77c2.5-1.9,3.5-2.6,6.4-2.6s3.9,0.8,6.4,2.6c3.3,2.4,8.2,6.1,16.9,6.1V65.6c-2.9,0-3.9-0.8-6.4-2.6
		c-3.2-2.4-8.2-6.1-16.9-6.1s-13.7,3.7-16.9,6.1c-2.5,1.9-3.5,2.6-6.4,2.6c-2.9,0-3.9-0.8-6.4-2.6c-3.3-2.4-8.2-6.1-16.9-6.1v17.5
		c2.9,0,3.9,0.8,6.4,2.6c3.3,2.4,8.2,6.1,16.9,6.1S435,79.4,438.3,77z"/>
	<path class="st0" d="M587,33.2c2.5-1.9,3.5-2.6,6.4-2.6s3.9,0.8,6.4,2.6c3.3,2.4,8.2,6.1,16.9,6.1V21.9c-2.9,0-3.9-0.8-6.4-2.6
		c-3.2-2.4-8.2-6.1-16.9-6.1s-13.7,3.7-16.9,6.1c-2.5,1.9-3.5,2.6-6.4,2.6c-2.9,0-3.9-0.8-6.4-2.6c-3.3-2.4-8.2-6.1-16.9-6.1v17.5
		c2.9,0,3.9,0.8,6.4,2.6c3.3,2.4,8.2,6.1,16.9,6.1S583.8,35.7,587,33.2L587,33.2z"/>
	<path class="st0" d="M651.8,65.6c-2.9,0-3.9-0.8-6.4-2.6c-3.2-2.4-8.2-6.1-16.9-6.1s-13.7,3.7-16.9,6.1c-2.5,1.9-3.5,2.6-6.4,2.6
		c-2.9,0-3.9-0.8-6.4-2.6c-3.3-2.4-8.2-6.1-16.9-6.1v17.5c2.9,0,3.9,0.8,6.4,2.6c3.3,2.4,8.2,6.1,16.9,6.1s13.7-3.7,16.9-6.1
		c2.5-1.9,3.5-2.6,6.4-2.6s3.9,0.8,6.4,2.6c3.3,2.4,8.2,6.1,16.9,6.1V65.6z"/>
	<g>
		<defs>
			<polyline id="SVGID_1_" points="943.1,691.3 943.1,1391.3 243.1,1391.3 			"/>
		</defs>
		<use xlink:href="#SVGID_1_"  style="overflow:visible;fill:#FCFCFD;"/>
		<clipPath id="SVGID_2_">
			<use xlink:href="#SVGID_1_"  style="overflow:visible;"/>
		</clipPath>
	</g>
	<g>
		<defs>
			<polyline id="SVGID_3_" points="1127.7,691.3 1127.7,1391.3 427.7,1391.3 			"/>
		</defs>
		<use xlink:href="#SVGID_3_"  style="overflow:visible;fill:#FCFCFD;"/>
		<clipPath id="SVGID_4_">
			<use xlink:href="#SVGID_3_"  style="overflow:visible;"/>
		</clipPath>
	</g>
	<g>
		<defs>
			<polyline id="SVGID_5_" points="1183.4,691.3 1183.4,1391.3 483.4,1391.3 			"/>
		</defs>
		<use xlink:href="#SVGID_5_"  style="overflow:visible;fill:#FCFCFD;"/>
		<clipPath id="SVGID_6_">
			<use xlink:href="#SVGID_5_"  style="overflow:visible;"/>
		</clipPath>
	</g>
</g>
</svg>
