<?xml version="1.0" encoding="utf-8"?>
<!-- Generator: Adobe Illustrator 23.0.6, SVG Export Plug-In . SVG Version: 6.00 Build 0)  -->
<svg version="1.1" id="Layer_1" xmlns="http://www.w3.org/2000/svg" xmlns:xlink="http://www.w3.org/1999/xlink" x="0px" y="0px"
	 viewBox="0 0 454.7 338.1" style="enable-background:new 0 0 454.7 338.1;" xml:space="preserve">
<style type="text/css">
	.st0{fill:#FCFCFD;}
</style>
<path class="st0" d="M399.1,103.3c-11.9-13.9-26-25.8-41.8-35L253.2,3.9c-5.5-3.4-12-4.7-18.3-3.6c-6.3,1.1-12.1,4.5-16.1,9.5
	l-5.1,6.3c-7.2,9.1-10.6,20.6-9.6,32.1c1,11.5,6.4,22.2,15.1,29.9l28,25.1H37.7c-9.8-0.4-19.3,3.1-26.4,9.8S0.1,129.1,0,138.9
	c-0.1,9.8,3.7,19.2,10.6,26.1c6.8,6.8,16.2,10.6,25.8,10.6h86.2c-4,6.9-5.6,14.9-4.6,22.8c1,7.9,4.6,15.2,10.3,20.8
	c3.8,4,8.5,7.1,13.6,9c-3.9,5.8-6.1,12.6-6.1,19.6c0,9.6,3.8,18.8,10.6,25.6c3.8,4,8.5,7.1,13.6,9c-3.9,5.8-6.1,12.6-6.1,19.6
	c0,9.6,3.8,18.8,10.6,25.5c6.8,6.8,16,10.6,25.5,10.6h102.9c34-0.8,66.6-13.6,91.9-36.1h9.8c15.9,0,31.1-6.4,42.4-17.6
	c11.2-11.2,17.6-26.5,17.6-42.4v-78.8c0-15.2-5.7-29.8-16-40.9C428.4,111.3,414.2,104.4,399.1,103.3L399.1,103.3z M436.6,242
	c0,11.1-4.4,21.8-12.3,29.6c-7.9,7.9-18.5,12.3-29.6,12.3h-13.4c-2.3,0-4.5,0.9-6.1,2.4c-23.3,21.7-54,33.7-85.8,33.7H190
	c-4.8,0-9.4-1.9-12.8-5.3c-3.4-3.4-5.3-8-5.3-12.8c0-4.8,1.9-9.4,5.3-12.8c3.4-3.4,8-5.3,12.8-5.3h29.8c5,0,9-4,9-9s-4-9-9-9h-47.9
	c-4.8,0-9.4-1.9-12.8-5.3c-3.4-3.4-5.3-8-5.3-12.8c0-4.8,1.9-9.4,5.3-12.8c3.4-3.4,8-5.3,12.8-5.3h47.9c5,0,9-4,9-9c0-5-4-9-9-9
	h-65.9c-4.8,0-9.4-1.9-12.8-5.3c-3.4-3.4-5.3-8-5.3-12.8c0-4.8,1.9-9.4,5.3-12.8c3.4-3.4,8-5.3,12.8-5.3h65.9c5,0,9-4,9-9s-4-9-9-9
	H36.5c-5.5,0.1-10.8-2.3-14.3-6.5c-3.5-4.2-4.9-9.9-3.8-15.2c1.1-4.3,3.6-8,7.1-10.6c3.5-2.6,7.9-3.9,12.2-3.7h233.6
	c3.8,0,7.1-2.3,8.4-5.8c1.3-3.5,0.3-7.5-2.5-10l-46.3-40.6c-5.2-4.6-8.4-11-9-17.9c-0.6-6.9,1.4-13.7,5.7-19.2l5.1-6.3
	c2.6-3.3,7.2-4.1,10.8-1.9l104.6,64.4c15.2,8.8,28.6,20.3,39.6,34c1.7,2.1,4.3,3.4,7,3.3c11.1,0,21.8,4.4,29.6,12.3
	c7.9,7.9,12.3,18.5,12.3,29.6L436.6,242z"/>
</svg>
