<?xml version="1.0" encoding="utf-8"?>
<!-- Generator: Adobe Illustrator 23.0.6, SVG Export Plug-In . SVG Version: 6.00 Build 0)  -->
<svg version="1.1" id="Layer_1" xmlns="http://www.w3.org/2000/svg" xmlns:xlink="http://www.w3.org/1999/xlink" x="0px" y="0px"
	 viewBox="0 0 366.2 366.8" style="enable-background:new 0 0 366.2 366.8;" xml:space="preserve">
<style type="text/css">
	.st0{fill:#FCFCFD;}
</style>
<path class="st0" d="M34.6,156.8c0.2,0,0.3,0,0.5,0c2.1,0,3.9-1.6,4.2-3.7c0.6-5.4,1.2-10.6,1.8-15.6c0.3-2.3-1.3-4.4-3.6-4.7
	c-2.3-0.3-4.4,1.3-4.7,3.6c-0.6,5-1.2,10.2-1.8,15.7C30.6,154.4,32.3,156.5,34.6,156.8L34.6,156.8z"/>
<path class="st0" d="M31.3,334.4h196v8.4h-196V334.4z"/>
<path class="st0" d="M324.1,138.9c-2.3,0-4.2,1.9-4.2,4.2v163.8c0,2.3,1.9,4.2,4.2,4.2c2.3,0,4.2-1.9,4.2-4.2V143.1
	C328.3,140.8,326.4,138.9,324.1,138.9L324.1,138.9z"/>
<path class="st0" d="M365.7,316.6c0.1-0.2,0.2-0.5,0.3-0.7c0.1-0.3,0.1-0.6,0.2-0.9c0-0.2,0.1-0.3,0.1-0.5
	c-4.8-201.8-39.1-262.1-45.1-271.2l0-39.2c0-2.3-1.9-4.2-4.2-4.2H35c-2.3,0-4.2,1.9-4.2,4.2v39.5C26.8,52.5,0,120.3,0,362.6
	c0,2.3,1.9,4.2,4.2,4.2h281.9h0h0c0.5,0,1-0.1,1.4-0.3c0.1-0.1,0.3-0.1,0.4-0.2c0.1-0.1,0.3-0.1,0.4-0.2l76-47.9
	c0.1-0.1,0.2-0.2,0.4-0.3c0.2-0.2,0.4-0.4,0.6-0.6C365.4,317.1,365.6,316.8,365.7,316.6L365.7,316.6z M37.8,48.9h12.5
	c-3,8.2-8.2,25.6-13.3,57.3c-0.4,2.3,1.2,4.4,3.5,4.8c0.2,0,0.5,0.1,0.7,0.1c2,0,3.8-1.5,4.1-3.5c5.9-36,11.8-53,14-58.6h251.3
	c-3.3,9-9.2,29-14.8,66.6L15.7,174.4C23.2,90.8,34.5,57.3,37.8,48.9L37.8,48.9z M14.9,183.1l279.6-58.8
	c-3.9,27.9-7.4,64.6-9.8,112.3L9.2,294.6C10.3,250.4,12.3,213.7,14.9,183.1L14.9,183.1z M9,303.2l275.3-57.9
	c-1.5,32.6-2.4,70-2.4,113.1l-273.5,0C8.4,338.8,8.7,320.5,9,303.2L9,303.2z M317.7,54.5c10.1,20.4,35.8,88.4,40.1,257.9L290.3,355
	C290.8,155.6,310.1,77.4,317.7,54.5L317.7,54.5z M39.2,8.4h273.5v32.1H39.2V8.4z"/>
</svg>
