<?xml version="1.0" encoding="utf-8"?>
<!-- Generator: Adobe Illustrator 23.0.6, SVG Export Plug-In . SVG Version: 6.00 Build 0)  -->
<svg version="1.1" id="Layer_1" xmlns="http://www.w3.org/2000/svg" xmlns:xlink="http://www.w3.org/1999/xlink" x="0px" y="0px"
	 viewBox="0 0 497.8 525.2" style="enable-background:new 0 0 497.8 525.2;" xml:space="preserve">
<style type="text/css">
	.st0{fill:#FCFCFD;}
</style>
<path class="st0" d="M363.7,197.1h-56v-49.3c0-27.2-22.1-49.3-49.3-49.3c-9.6,0-17.4,7.8-17.4,17.4v53c0,28.5-21.9,52-49.8,54.5
	c-2.7-12.6-13.9-22.1-27.3-22.1h-21.5c-15.4,0-27.9,12.5-27.9,27.9v123c0,15.4,12.5,27.9,27.9,27.9h21.5c9.2,0,17.2-4.5,22.3-11.3
	c5.1,6.8,13.2,11.3,22.3,11.3h116c28.3,0,52.5-19.3,58.8-46.9l19.8-87.1c2.7-12-0.1-24.4-7.8-34.1
	C387.5,202.6,376,197.1,363.7,197.1L363.7,197.1z M163.9,369.1h-21.5c-9.2,0-16.7-7.5-16.7-16.7v-123c0-9.2,7.5-16.7,16.7-16.7h21.5
	c9.2,0,16.7,7.5,16.7,16.7v123C180.6,361.6,173.1,369.1,163.9,369.1z M392.1,243.8l-19.8,87.1c-5.1,22.5-24.8,38.2-47.8,38.2H208.5
	c-9.2,0-16.7-7.5-16.7-16.7V234.6c33.8-2.9,60.4-31.2,60.4-65.7v-53c0-3.4,2.8-6.2,6.2-6.2c21,0,38.1,17.1,38.1,38.1v54.9
	c0,3.1,2.5,5.6,5.6,5.6h61.6c8.9,0,17.2,4,22.7,10.9S394,235.1,392.1,243.8L392.1,243.8z"/>
<path class="st0" d="M153.1,332.6c-7.9,0-14.4,6.5-14.4,14.4c0,7.9,6.5,14.4,14.4,14.4c7.9,0,14.4-6.5,14.4-14.4
	C167.5,339.1,161,332.6,153.1,332.6z M153.1,350.2c-1.8,0-3.2-1.4-3.2-3.2c0-1.8,1.4-3.2,3.2-3.2s3.2,1.4,3.2,3.2
	C156.3,348.8,154.9,350.2,153.1,350.2z"/>
<path class="st0" d="M491.5,209.6c6.3-8.8,8.1-19.7,4.7-30s-11.2-18.1-21.4-21.5L431,143.9c-9.2-3-15.4-11.5-15.4-21.1l-0.1-46
	c0-10.8-5-20.7-13.8-27c-8.8-6.4-19.7-8.1-30-4.8L327.9,59c-9.2,3-19.2-0.3-24.9-8.1L276,13.8C269.6,5,259.7,0,248.9,0
	c-10.8,0-20.7,5-27,13.8L194.7,51c-5.7,7.8-15.7,11-24.8,8.1l-43.8-14.2c-10.3-3.3-21.2-1.6-30,4.8c-8.8,6.4-13.8,16.2-13.8,27
	l-0.1,46c0,9.6-6.2,18.1-15.4,21.1l-43.8,14.3C12.8,161.5,5,169.4,1.7,179.6c-3.3,10.3-1.6,21.2,4.7,30l27,37.3
	c5.7,7.8,5.7,18.3,0,26.1l-27,37.3c-6.3,8.8-8.1,19.7-4.7,30s11.2,18.1,21.4,21.5l43.8,14.3c9.2,3,15.4,11.5,15.4,21.1l0.1,46
	c0,10.8,5,20.7,13.8,27c8.8,6.4,19.7,8.1,30,4.8l43.8-14.2c9.2-3,19.2,0.3,24.9,8.1l27.1,37.2c6.4,8.7,16.2,13.8,27,13.8
	c10.8,0,20.7-5,27-13.8l27.1-37.2c5.7-7.8,15.7-11,24.8-8.1l43.8,14.2c10.3,3.3,21.2,1.6,30-4.8c8.8-6.4,13.8-16.2,13.8-27l0.1-46
	c0-9.6,6.2-18.1,15.4-21.1l43.8-14.3c10.3-3.4,18.1-11.2,21.4-21.5c3.3-10.3,1.6-21.2-4.7-30l-27-37.3c-5.7-7.8-5.7-18.3,0-26.1
	L491.5,209.6z M455.4,279.6l27,37.3c4.2,5.8,5.4,13.1,3.1,19.9c-2.2,6.8-7.4,12.1-14.3,14.3l-43.8,14.3
	c-13.8,4.5-23.1,17.3-23.1,31.8l-0.1,46c0,7.2-3.4,13.8-9.2,18c-5.8,4.2-13.1,5.4-19.9,3.2l-43.8-14.2c-13.8-4.5-28.8,0.4-37.3,12.1
	l-27.1,37.2c-4.3,5.8-10.8,9.1-18,9.1c-7.2,0-13.8-3.3-18-9.2l-27.1-37.2c-6.4-8.8-16.5-13.8-27-13.8c-3.4,0-6.9,0.5-10.3,1.6
	l-43.8,14.2c-6.8,2.2-14.1,1.1-19.9-3.2c-5.8-4.2-9.2-10.8-9.2-18l-0.1-46c0-14.5-9.3-27.3-23.1-31.8l-43.8-14.3
	c-6.8-2.2-12-7.4-14.3-14.3c-2.2-6.8-1.1-14.1,3.1-19.9l27-37.3c8.5-11.7,8.5-27.5,0-39.3l-27-37.3c-4.2-5.8-5.4-13.1-3.1-19.9
	c2.2-6.8,7.4-12.1,14.3-14.3l43.8-14.3c13.8-4.5,23.1-17.3,23.1-31.8l0.1-46c0-7.2,3.4-13.8,9.2-18c5.8-4.2,13.1-5.4,19.9-3.2
	l43.8,14.2c13.8,4.5,28.8-0.4,37.3-12.1l27.1-37.2c4.3-5.8,10.8-9.1,18-9.1c7.2,0,13.8,3.3,18,9.2L294,57.6
	c8.5,11.7,23.5,16.6,37.3,12.1l43.8-14.2c6.8-2.2,14.1-1.1,19.9,3.2c5.8,4.2,9.2,10.8,9.2,18l0.1,46c0,14.5,9.3,27.3,23.1,31.8
	l43.8,14.3c6.8,2.2,12,7.4,14.3,14.3c2.2,6.8,1.1,14.1-3.1,19.9l-27,37.3C446.9,252.1,446.9,267.9,455.4,279.6L455.4,279.6z"/>
</svg>
